<svg width="48" height="48" viewBox="0 0 48 48" fill="none" xmlns="http://www.w3.org/2000/svg">
<g clip-path="url(#clip0_6506_31784)">
<path d="M39.808 24.95H35.5093C35.6107 25.9793 36.3627 26.31 37.216 26.31C38.0907 26.31 38.7947 26.1127 39.376 25.8033V27.574C38.6383 27.9985 37.7941 28.2021 36.944 28.1607C34.8053 28.1607 33.3013 26.8273 33.3013 24.1713C33.3013 21.9367 34.576 20.1607 36.6613 20.1607C38.752 20.1607 39.84 21.91 39.84 24.1607C39.84 24.374 39.8187 24.8327 39.808 24.95ZM36.6507 21.9527C36.1013 21.9527 35.4933 22.342 35.4933 23.3287H37.76C37.76 22.342 37.1893 21.9527 36.6507 21.9527ZM29.84 28.1607C29.072 28.1607 28.6027 27.8407 28.2933 27.606L28.2827 30.0753L26.0853 30.5393V20.3047H28.0907L28.1333 20.8487C28.5985 20.4075 29.2149 20.1613 29.856 20.1607C31.4027 20.1607 32.8533 21.5473 32.8533 24.1073C32.8533 26.8967 31.4133 28.1607 29.84 28.1607ZM29.3333 22.1073C28.8267 22.1073 28.512 22.2887 28.2827 22.5393L28.2933 25.8033C28.5067 26.038 28.816 26.2193 29.3333 26.2193C30.144 26.2193 30.688 25.3393 30.688 24.1553C30.688 23.0087 30.1333 22.1073 29.3333 22.1073ZM23.0613 20.3047H25.264V28.006H23.0613V20.3047ZM23.0613 17.798L25.264 17.334V19.126L23.0613 19.5953V17.8033V17.798ZM20.7573 22.7847V28.006H18.56V20.3047H20.5333L20.5973 20.9553C21.1307 20.0113 22.2347 20.2033 22.528 20.3047V22.326C22.2507 22.2353 21.3067 22.0967 20.7573 22.7847ZM16.1973 25.302C16.1973 26.598 17.584 26.198 17.8613 26.0807V27.8727C17.568 28.0327 17.04 28.1607 16.32 28.1607C16.0199 28.1694 15.7212 28.117 15.442 28.0067C15.1628 27.8963 14.909 27.7304 14.6959 27.5188C14.4829 27.3073 14.3151 27.0546 14.2028 26.7762C14.0905 26.4978 14.036 26.1995 14.0427 25.8993L14.048 18.8753L16.192 18.4167V20.3047H17.8667V22.1873H16.1973V25.3073V25.302ZM13.5787 25.6753C13.5787 27.2593 12.3467 28.1607 10.5227 28.1607C9.70417 28.16 8.89453 27.9912 8.144 27.6647V25.5687C8.88 25.9687 9.79733 26.2673 10.5227 26.2673C11.0133 26.2673 11.3387 26.1393 11.3387 25.734C11.3387 24.678 8 25.0727 8 22.6407C8 21.0887 9.216 20.1607 10.9973 20.1607C11.7227 20.1607 12.448 20.2673 13.1787 20.5607V22.63C12.5034 22.2746 11.7549 22.0811 10.992 22.0647C10.5333 22.0647 10.224 22.198 10.224 22.5447C10.224 23.5313 13.5787 23.062 13.5787 25.6807V25.6753Z" fill="#635BFF"/>
</g>
<defs>
<clipPath id="clip0_6506_31784">
<rect width="32" height="28" fill="white" transform="translate(8 10)"/>
</clipPath>
</defs>
</svg>
