<svg width="30" height="31" viewBox="0 0 30 31" fill="none" xmlns="http://www.w3.org/2000/svg">
<path d="M11.9216 19.6307C9.92323 19.6307 8.22948 18.9366 6.84031 17.5482C5.45198 16.1607 4.75781 14.4674 4.75781 12.4682C4.75781 10.4691 5.45198 8.77531 6.84031 7.38698C8.22865 5.99865 9.9224 5.3049 11.9216 5.30573C13.9207 5.30656 15.6141 6.00073 17.0016 7.38823C18.3891 8.77573 19.0832 10.4691 19.0841 12.4682C19.0841 13.3366 18.9303 14.177 18.6228 14.9895C18.3153 15.802 17.9111 16.497 17.4103 17.0745L24.7966 24.4582C24.9132 24.5749 24.9757 24.7186 24.9841 24.8895C24.9916 25.0586 24.9291 25.2099 24.7966 25.3432C24.6632 25.4766 24.5157 25.5432 24.3541 25.5432C24.1924 25.5432 24.0449 25.4766 23.9116 25.3432L16.5266 17.9582C15.9016 18.4907 15.1828 18.9028 14.3703 19.1945C13.5578 19.4861 12.7411 19.632 11.9203 19.632M11.9203 18.382C13.5786 18.382 14.9791 17.8111 16.1216 16.6695C17.2632 15.5278 17.8341 14.1274 17.8341 12.4682C17.8341 10.8091 17.2636 9.40906 16.1228 8.26823C14.982 7.1274 13.582 6.55656 11.9228 6.55573C10.2636 6.55573 8.86323 7.12656 7.72156 8.26823C6.5799 9.4099 6.00865 10.8099 6.00781 12.4682C6.00698 14.1266 6.57781 15.5266 7.72031 16.6682C8.86281 17.8099 10.2628 18.3807 11.9203 18.3807" fill="#2F2F2F"/>
</svg>
