<svg width="22" height="21" viewBox="0 0 22 21" fill="none" xmlns="http://www.w3.org/2000/svg">
<path d="M7.99065 14.6307C5.99232 14.6307 4.29857 13.9366 2.9094 12.5482C1.52107 11.1607 0.826904 9.4674 0.826904 7.46823C0.826904 5.46907 1.52107 3.77532 2.9094 2.38698C4.29774 0.99865 5.99149 0.3049 7.99065 0.305733C9.98982 0.306567 11.6832 1.00073 13.0707 2.38823C14.4582 3.77573 15.1523 5.46907 15.1532 7.46823C15.1532 8.33657 14.9994 9.17698 14.6919 9.98948C14.3844 10.802 13.9802 11.497 13.4794 12.0745L20.8657 19.4582C20.9823 19.5749 21.0448 19.7186 21.0532 19.8895C21.0607 20.0586 20.9982 20.2099 20.8657 20.3432C20.7323 20.4766 20.5848 20.5432 20.4232 20.5432C20.2615 20.5432 20.114 20.4766 19.9807 20.3432L12.5957 12.9582C11.9707 13.4907 11.2519 13.9028 10.4394 14.1945C9.6269 14.4861 8.81024 14.632 7.9894 14.632M7.9894 13.382C9.64774 13.382 11.0482 12.8111 12.1907 11.6695C13.3323 10.5278 13.9032 9.1274 13.9032 7.46823C13.9032 5.80907 13.3327 4.40907 12.1919 3.26823C11.0511 2.1274 9.65107 1.55657 7.9919 1.55573C6.33274 1.55573 4.93232 2.12657 3.79065 3.26823C2.64899 4.4099 2.07774 5.8099 2.0769 7.46823C2.07607 9.12657 2.6469 10.5266 3.7894 11.6682C4.9319 12.8099 6.3319 13.3807 7.9894 13.3807" fill="#FF8728"/>
</svg>
