<svg width="135" height="130" viewBox="0 0 135 130" fill="none" xmlns="http://www.w3.org/2000/svg">
<path d="M109.42 30.0394C122.59 46.2454 115.194 76.0152 91.7197 95.0923C68.2455 114.17 37.5829 115.33 24.4125 99.1239C11.242 82.9178 17.2499 55.0659 40.7241 35.9887C64.1983 16.9116 96.2495 13.8333 109.42 30.0394Z" fill="#FF8728"/>
<path d="M51.5474 61.6378C51.4906 61.0649 51.2467 60.6198 50.8159 60.3026C50.385 59.9853 49.8002 59.8267 49.0616 59.8267C48.5597 59.8267 48.1359 59.8977 47.7903 60.0398C47.4447 60.1771 47.1795 60.3688 46.9949 60.6151C46.8149 60.8613 46.725 61.1406 46.725 61.4531C46.7155 61.7135 46.7699 61.9408 46.8883 62.1349C47.0114 62.3291 47.1795 62.4972 47.3926 62.6392C47.6056 62.7765 47.8519 62.8973 48.1312 63.0014C48.4106 63.1009 48.7089 63.1861 49.0261 63.2571L50.3329 63.5696C50.9674 63.7116 51.5498 63.901 52.0801 64.1378C52.6104 64.3745 53.0697 64.6657 53.4579 65.0114C53.8462 65.357 54.1468 65.7642 54.3599 66.233C54.5777 66.7017 54.689 67.2391 54.6937 67.8452C54.689 68.7353 54.4617 69.5071 54.0119 70.1605C53.5668 70.8092 52.9229 71.3134 52.0801 71.6733C51.242 72.0284 50.2311 72.206 49.0474 72.206C47.8732 72.206 46.8504 72.026 45.9792 71.6662C45.1127 71.3063 44.4357 70.7737 43.948 70.0682C43.465 69.358 43.2117 68.4796 43.188 67.4332H46.1639C46.197 67.9209 46.3367 68.3281 46.5829 68.6548C46.8339 68.9768 47.1677 69.2206 47.5843 69.3864C48.0057 69.5473 48.4816 69.6278 49.0119 69.6278C49.5327 69.6278 49.9849 69.5521 50.3684 69.4006C50.7567 69.2491 51.0574 69.0384 51.2704 68.7685C51.4835 68.4986 51.59 68.1884 51.59 67.8381C51.59 67.5114 51.493 67.2367 51.2988 67.0142C51.1094 66.7917 50.8301 66.6023 50.4608 66.446C50.0962 66.2898 49.6487 66.1477 49.1184 66.0199L47.5346 65.6222C46.3083 65.3239 45.34 64.8575 44.6298 64.223C43.9196 63.5885 43.5668 62.7339 43.5716 61.6591C43.5668 60.7784 43.8012 60.009 44.2747 59.3509C44.7529 58.6927 45.4087 58.179 46.242 57.8097C47.0753 57.4403 48.0223 57.2557 49.0829 57.2557C50.1625 57.2557 51.1047 57.4403 51.9096 57.8097C52.7193 58.179 53.349 58.6927 53.7988 59.3509C54.2486 60.009 54.4806 60.7713 54.4949 61.6378H51.5474ZM61.677 72.2131C60.5549 72.2131 59.589 71.9858 58.7793 71.5312C57.9744 71.072 57.3541 70.4233 56.9185 69.5852C56.4829 68.7424 56.2651 67.7457 56.2651 66.5952C56.2651 65.473 56.4829 64.4882 56.9185 63.6406C57.3541 62.7931 57.9673 62.1326 58.758 61.6591C59.5534 61.1856 60.4862 60.9489 61.5563 60.9489C62.276 60.9489 62.946 61.0649 63.5662 61.2969C64.1912 61.5241 64.7357 61.8674 65.1998 62.3267C65.6685 62.786 66.0331 63.3636 66.2935 64.0597C66.5539 64.7509 66.6841 65.5606 66.6841 66.4886V67.3196H57.4725V65.4446H63.8361C63.8361 65.009 63.7414 64.6231 63.552 64.2869C63.3626 63.9508 63.0998 63.688 62.7637 63.4986C62.4322 63.3045 62.0463 63.2074 61.606 63.2074C61.1467 63.2074 60.7395 63.3139 60.3844 63.527C60.034 63.7353 59.7594 64.017 59.5605 64.3722C59.3617 64.7225 59.2599 65.1132 59.2551 65.544V67.3267C59.2551 67.8665 59.3546 68.3329 59.5534 68.7259C59.757 69.1188 60.0435 69.4219 60.4128 69.6349C60.7821 69.848 61.2201 69.9545 61.7267 69.9545C62.0629 69.9545 62.3707 69.9072 62.65 69.8125C62.9294 69.7178 63.1685 69.5758 63.3674 69.3864C63.5662 69.197 63.7177 68.965 63.8219 68.6903L66.6202 68.875C66.4782 69.5473 66.187 70.1345 65.7466 70.6364C65.311 71.1335 64.7476 71.5218 64.0563 71.8011C63.3697 72.0758 62.5766 72.2131 61.677 72.2131ZM71.6841 65.6932V72H68.6586V61.0909H71.5421V63.0156H71.6699C71.9114 62.3812 72.3162 61.8793 72.8844 61.5099C73.4526 61.1359 74.1415 60.9489 74.9512 60.9489C75.7087 60.9489 76.3693 61.1146 76.9327 61.446C77.4962 61.7775 77.9341 62.2509 78.2466 62.8665C78.5591 63.4773 78.7154 64.2064 78.7154 65.054V72H75.6898V65.5938C75.6945 64.9261 75.5241 64.4053 75.1784 64.0312C74.8328 63.6525 74.3569 63.4631 73.7509 63.4631C73.3437 63.4631 72.9838 63.5507 72.6713 63.7259C72.3636 63.901 72.1221 64.1567 71.9469 64.4929C71.7765 64.8243 71.6889 65.2244 71.6841 65.6932ZM85.1199 72.1776C84.2913 72.1776 83.5408 71.9645 82.8684 71.5384C82.2008 71.1075 81.6705 70.4754 81.2775 69.642C80.8893 68.804 80.6951 67.7765 80.6951 66.5597C80.6951 65.3097 80.8964 64.2704 81.2988 63.4418C81.7013 62.6084 82.2363 61.9858 82.9039 61.5739C83.5763 61.1572 84.3126 60.9489 85.1127 60.9489C85.7235 60.9489 86.2325 61.053 86.6397 61.2614C87.0517 61.465 87.3831 61.7206 87.6341 62.0284C87.8897 62.3314 88.0839 62.6297 88.2164 62.9233H88.3088V57.4545H91.3272V72H88.3443V70.2528H88.2164C88.0744 70.5559 87.8732 70.8565 87.6127 71.1548C87.3571 71.4484 87.0233 71.6922 86.6113 71.8864C86.2041 72.0805 85.707 72.1776 85.1199 72.1776ZM86.0787 69.7699C86.5663 69.7699 86.9783 69.6373 87.3145 69.3722C87.6554 69.1023 87.9158 68.7259 88.0957 68.2429C88.2804 67.7599 88.3727 67.1941 88.3727 66.5455C88.3727 65.8968 88.2827 65.3333 88.1028 64.8551C87.9229 64.3769 87.6625 64.0076 87.3216 63.7472C86.9806 63.4867 86.5663 63.3565 86.0787 63.3565C85.5815 63.3565 85.1625 63.4915 84.8216 63.7614C84.4806 64.0312 84.2226 64.4053 84.0474 64.8835C83.8722 65.3617 83.7846 65.9157 83.7846 66.5455C83.7846 67.1799 83.8722 67.741 84.0474 68.2287C84.2273 68.7116 84.4854 69.0904 84.8216 69.3651C85.1625 69.6349 85.5815 69.7699 86.0787 69.7699Z" fill="white"/>
</svg>
