<svg viewBox="0 0 24 24" xmlns="http://www.w3.org/2000/svg">
  <path d="M13.976 9.15c-2.172-.806-3.356-1.426-3.356-2.409 0-.831.683-1.305 1.901-1.305 2.227 0 4.515.858 6.09 1.587l.89-5.494C18.252.975 15.697 0 12.165 0 9.667 0 7.589.654 6.104 1.872 4.56 3.147 3.757 4.992 3.757 7.218c0 3.407 2.445 5.178 6.05 6.83 2.34.98 3.356 1.6 3.356 2.704 0 .98-.84 1.545-2.354 1.545-1.905 0-4.515-.927-6.29-1.8l-.9 5.555C5.175 22.99 8.385 24 11.714 24c2.641 0 4.842-.624 6.328-1.813 1.664-1.305 2.525-3.236 2.525-5.732 0-3.526-2.053-5.168-5.591-6.305z" fill="#635BFF"/>
</svg>
