<svg width="95" height="92" viewBox="0 0 95 92" fill="none" xmlns="http://www.w3.org/2000/svg">
<path d="M29.6156 26.4998C37.6624 19.9603 47.1557 16.1864 55.7042 15.4204C64.2829 14.6517 71.6583 16.9152 75.8667 22.0933C80.1137 27.3192 81.1499 34.8727 79.0241 42.9043C76.9026 50.9199 71.6582 59.2508 63.6237 65.7804C55.5892 72.3098 46.3605 75.7411 38.0788 76.1801C29.7803 76.6199 22.597 74.062 18.3501 68.8363C9.82869 58.3505 13.4112 39.6689 29.6156 26.4998Z" stroke="#FF8728" stroke-width="3"/>
<path d="M55.1667 44.8334H38.8333C37.5447 44.8334 36.5 45.878 36.5 47.1667V55.3334C36.5 56.622 37.5447 57.6667 38.8333 57.6667H55.1667C56.4553 57.6667 57.5 56.622 57.5 55.3334V47.1667C57.5 45.878 56.4553 44.8334 55.1667 44.8334Z" stroke="white" stroke-width="2.33333" stroke-linecap="round" stroke-linejoin="round"/>
<path d="M41.1667 44.8334V40.1667C41.1667 38.6196 41.7813 37.1359 42.8753 36.0419C43.9693 34.948 45.453 34.3334 47.0001 34.3334C48.5472 34.3334 50.0309 34.948 51.1249 36.0419C52.2188 37.1359 52.8334 38.6196 52.8334 40.1667V44.8334" stroke="white" stroke-width="2.33333" stroke-linecap="round" stroke-linejoin="round"/>
</svg>
