<svg width="95" height="92" viewBox="0 0 95 92" fill="none" xmlns="http://www.w3.org/2000/svg">
<path d="M29.6156 26.4998C37.6624 19.9603 47.1557 16.1864 55.7042 15.4204C64.2829 14.6517 71.6583 16.9152 75.8667 22.0933C80.1137 27.3192 81.1499 34.8727 79.0241 42.9043C76.9026 50.9199 71.6582 59.2508 63.6237 65.7804C55.5892 72.3098 46.3605 75.7411 38.0788 76.1801C29.7803 76.6199 22.597 74.062 18.3501 68.8363C9.82869 58.3505 13.4112 39.6689 29.6156 26.4998Z" stroke="#FF8728" stroke-width="3"/>
<path d="M56.3334 47.1666C56.3334 53 52.2501 55.9166 47.3967 57.6083C47.1426 57.6944 46.8665 57.6903 46.6151 57.5966C41.7501 55.9166 37.6667 53 37.6667 47.1666V39C37.6667 38.6905 37.7897 38.3938 38.0085 38.175C38.2272 37.9562 38.524 37.8333 38.8334 37.8333C41.1667 37.8333 44.0834 36.4333 46.1134 34.66C46.3606 34.4488 46.675 34.3328 47.0001 34.3328C47.3252 34.3328 47.6396 34.4488 47.8867 34.66C49.9284 36.445 52.8334 37.8333 55.1667 37.8333C55.4762 37.8333 55.7729 37.9562 55.9917 38.175C56.2105 38.3938 56.3334 38.6905 56.3334 39V47.1666Z" stroke="white" stroke-width="2.33333" stroke-linecap="round" stroke-linejoin="round"/>
</svg>
