<svg width="95" height="92" viewBox="0 0 95 92" fill="none" xmlns="http://www.w3.org/2000/svg">
<path d="M29.6156 26.4998C37.6624 19.9603 47.1557 16.1864 55.7042 15.4204C64.2829 14.6517 71.6583 16.9152 75.8667 22.0933C80.1137 27.3192 81.1499 34.8727 79.0241 42.9043C76.9026 50.9199 71.6582 59.2508 63.6237 65.7804C55.5892 72.3098 46.3605 75.7411 38.0788 76.1801C29.7803 76.6199 22.597 74.062 18.3501 68.8363C9.82869 58.3505 13.4112 39.6689 29.6156 26.4998Z" stroke="#FF8728" stroke-width="3"/>
<path d="M51.0565 47.0383L52.824 56.9853C52.8438 57.1025 52.8273 57.2228 52.7768 57.3304C52.7264 57.4379 52.6443 57.5275 52.5415 57.5871C52.4388 57.6467 52.3203 57.6735 52.2019 57.664C52.0835 57.6544 51.9708 57.609 51.879 57.5337L47.7023 54.3988C47.5007 54.2482 47.2557 54.1668 47.004 54.1668C46.7524 54.1668 46.5074 54.2482 46.3058 54.3988L42.1221 57.5325C42.0303 57.6077 41.9178 57.6531 41.7995 57.6626C41.6813 57.6722 41.5629 57.6455 41.4602 57.586C41.3576 57.5266 41.2754 57.4372 41.2249 57.3299C41.1743 57.2226 41.1576 57.1024 41.1771 56.9853L42.9435 47.0383" stroke="white" stroke-width="2.33333" stroke-linecap="round" stroke-linejoin="round"/>
<path d="M47 48.3334C50.866 48.3334 54 45.1994 54 41.3334C54 37.4674 50.866 34.3334 47 34.3334C43.134 34.3334 40 37.4674 40 41.3334C40 45.1994 43.134 48.3334 47 48.3334Z" stroke="white" stroke-width="2.33333" stroke-linecap="round" stroke-linejoin="round"/>
</svg>
