<svg xmlns="http://www.w3.org/2000/svg" width="1200" height="630" viewBox="0 0 1200 630" role="img">
<defs><linearGradient id="bg" x1="0" y1="0" x2="1" y2="1"><stop offset="0" stop-color="#0b0f1a"/><stop offset="1" stop-color="#1b2236"/></linearGradient>
<radialGradient id="glow" cx="0.5" cy="0.5" r="0.5"><stop offset="0" stop-color="#F7B928" stop-opacity="0.35"/><stop offset="1" stop-color="#F7B928" stop-opacity="0"/></radialGradient></defs>
<rect width="1200" height="630" fill="url(#bg)"/><circle cx="1096" cy="568" r="3" fill="#F7B928" opacity="0.12"/><circle cx="107" cy="35" r="5" fill="#F7B928" opacity="0.12"/><circle cx="318" cy="132" r="7" fill="#F7B928" opacity="0.12"/><circle cx="529" cy="229" r="3" fill="#F7B928" opacity="0.12"/><circle cx="740" cy="326" r="5" fill="#F7B928" opacity="0.12"/><circle cx="951" cy="423" r="7" fill="#F7B928" opacity="0.12"/><circle cx="1162" cy="520" r="3" fill="#F7B928" opacity="0.12"/><circle cx="173" cy="617" r="5" fill="#F7B928" opacity="0.12"/><circle cx="384" cy="84" r="7" fill="#F7B928" opacity="0.12"/><circle cx="595" cy="181" r="3" fill="#F7B928" opacity="0.12"/><circle cx="806" cy="278" r="5" fill="#F7B928" opacity="0.12"/><circle cx="1017" cy="375" r="7" fill="#F7B928" opacity="0.12"/><circle cx="28" cy="472" r="3" fill="#F7B928" opacity="0.12"/><circle cx="239" cy="569" r="5" fill="#F7B928" opacity="0.12"/>
<circle cx="600" cy="315" r="300" fill="url(#glow)"/>
<g transform="translate(600 315)" stroke="#F7B928" stroke-width="10" stroke-linecap="round" stroke-linejoin="round" fill="none"><circle cx="-170" cy="0" r="110" fill="#F7B928" fill-opacity="0.18"/><circle cx="-170" cy="0" r="81"/><path d="M-190 -46v92M-190 -46h33a22 22 0 0 1 0 46h-33h37a24 24 0 0 1 0 46h-37"/><circle cx="170" cy="0" r="110" stroke="#94A3B8" fill="#94A3B8" fill-opacity="0.12"/><circle cx="170" cy="0" r="80" stroke="#94A3B8"/><path d="M-20 -20H30M10 -40l20 20-20 20M20 30H-30M-10 10l-20 20 20 20" stroke="#E2E8F0" stroke-width="8"/></g></svg>