<svg version="1.2" xmlns="http://www.w3.org/2000/svg" viewBox="0 0 104 96" width="104" height="96">
	<style>
		.s0 { fill: #ff8728 } 
		.s1 { fill: #ffffff } 
	</style>
	<path class="s0" d="m95.42 13.04c13.17 16.21 5.77 45.98-17.7 65.06-23.47 19.07-54.14 20.23-67.31 4.03-13.17-16.21-7.16-44.06 16.31-63.14 23.48-19.07 55.53-22.15 68.7-5.95z"/>
	<path class="s1" d="m53.91 65.99l-18.5-18.49v-17.08h17.09l18.45 18.53zm0-4.82l12.21-12.22-15.07-15.12h-12.22v12.22zm-10.8-20.5q1.06 0 1.81-0.75 0.75-0.75 0.75-1.82 0-1.07-0.75-1.81-0.74-0.74-1.81-0.75-1.08 0-1.82 0.75-0.74 0.75-0.75 1.81 0 1.07 0.75 1.82 0.76 0.75 1.82 0.75z"/>
</svg>