<svg width="41" height="41" viewBox="0 0 41 41" fill="none" xmlns="http://www.w3.org/2000/svg">
<circle cx="20.0005" cy="20.5933" r="19.5" stroke="#D5D5D5"/>
<path d="M20.067 23.9264C20.951 23.9264 21.7989 23.5752 22.424 22.9501C23.0491 22.325 23.4003 21.4772 23.4003 20.5931C23.4003 19.709 23.0491 18.8612 22.424 18.2361C21.7989 17.611 20.951 17.2598 20.067 17.2598C19.1829 17.2598 18.3351 17.611 17.71 18.2361C17.0848 18.8612 16.7336 19.709 16.7336 20.5931C16.7336 21.4772 17.0848 22.325 17.71 22.9501C18.3351 23.5752 19.1829 23.9264 20.067 23.9264Z" stroke="#D5D5D5" stroke-linecap="round" stroke-linejoin="round"/>
<path d="M12.5669 23.9266V17.2599C12.5669 16.1549 13.0059 15.0951 13.7873 14.3137C14.5687 13.5322 15.6285 13.0933 16.7336 13.0933H23.4002C24.5053 13.0933 25.5651 13.5322 26.3465 14.3137C27.1279 15.0951 27.5669 16.1549 27.5669 17.2599V23.9266C27.5669 25.0317 27.1279 26.0915 26.3465 26.8729C25.5651 27.6543 24.5053 28.0933 23.4002 28.0933H16.7336C15.6285 28.0933 14.5687 27.6543 13.7873 26.8729C13.0059 26.0915 12.5669 25.0317 12.5669 23.9266Z" stroke="#D5D5D5"/>
<path d="M24.6501 16.0184L24.6585 16.0093" stroke="#B7B7B7" stroke-linecap="round" stroke-linejoin="round"/>
</svg>
