<svg width="41" height="41" viewBox="0 0 41 41" fill="none" xmlns="http://www.w3.org/2000/svg">
<circle cx="20.0005" cy="20.5933" r="19.5" stroke="#D5D5D5"/>
<path d="M15.0421 21.8C15.0549 21.8037 15.068 21.8067 15.0812 21.8089L15.3529 21.8535L15.4604 22.1069C15.6965 22.6632 15.9313 23.22 16.1647 23.7774L16.1647 23.7776C16.5774 24.7636 17.0123 25.8234 17.1146 26.1504M15.0421 21.8L16.6377 26.3006M15.0421 21.8L12.4146 20.9162C12.4104 20.9144 12.4064 20.9128 12.4027 20.9112L12.3667 20.8963L12.3368 20.8835C12.3328 20.8818 12.3302 20.8806 12.3288 20.88L12.3288 20.88L12.3207 20.8761C12.2634 20.8487 12.1884 20.8085 12.1115 20.7539L12.1103 20.753C11.9707 20.6544 11.8081 20.4968 11.7559 20.2741L12.3537 20.6099C12.3909 20.6308 12.4292 20.6499 12.4683 20.6672L12.4891 20.6764L12.5106 20.6836L15.1202 21.5623C15.1368 21.5688 15.1528 21.5766 15.1681 21.5856L15.4211 21.7346L15.6744 21.5862L24.3077 16.5321L24.3177 16.5271L24.3334 16.5177C24.3571 16.5036 24.3812 16.4904 24.4058 16.4781L24.4058 16.4781L24.4095 16.4761C24.4552 16.4527 24.5223 16.4217 24.5922 16.4001L24.5937 16.3997C24.6203 16.3914 24.6573 16.3807 24.7028 16.376C24.7486 16.3714 24.7915 16.3743 24.829 16.3864L24.829 16.3864L24.8338 16.3879C24.8713 16.3996 24.9047 16.4217 24.9302 16.4515C24.9557 16.4814 24.9722 16.5179 24.9779 16.5568L24.9821 16.5859L24.9898 16.6144C24.9986 16.6474 24.9989 16.6822 24.9905 16.7153L25.4752 16.8381M15.0421 21.8L23.7048 27.4793C23.7134 27.4858 23.723 27.4918 23.7344 27.4971C23.9889 27.6067 24.2118 27.6358 24.4047 27.6102C24.5977 27.5828 24.7509 27.5027 24.8678 27.4092C24.9891 27.311 25.0893 27.1896 25.1627 27.0524V26.9551L25.2167 26.9011L27.6881 14.4406C27.6901 14.4277 27.6913 14.4148 27.6918 14.4018C27.6906 14.2045 27.6315 14.0569 27.5286 13.9577L27.3864 14.6745L24.9781 26.8187L24.9304 27.0592L24.8111 27.1188C24.7838 27.149 24.7545 27.1774 24.7233 27.2038L24.7224 27.2046C24.6223 27.289 24.5003 27.3432 24.3705 27.361L24.3565 27.3629L24.3424 27.364C24.1917 27.376 24.0403 27.3519 23.9008 27.2936L23.8408 27.2686L23.7893 27.2291L18.8959 23.4774L18.4357 23.1246L18.8525 22.7213L19.24 22.3463L19.2406 22.3457L21.4179 20.2458C21.418 20.2458 21.418 20.2457 21.4181 20.2457C23.0124 18.7071 24.6376 17.1402 24.7695 17.0171C24.9007 16.894 24.9693 16.7983 24.9906 16.7147L25.4752 16.8381M17.1146 26.1504C17.1147 26.1509 17.1149 26.1513 17.115 26.1518L16.6377 26.3006M17.1146 26.1504C17.1145 26.1501 17.1144 26.1497 17.1142 26.1493L16.6377 26.3006M17.1146 26.1504C17.221 26.4853 17.3197 26.6699 17.4007 26.7737M16.6377 26.3006C16.7535 26.6656 16.8752 26.9139 17.0085 27.0839M17.4007 26.7737C17.4002 26.7732 17.3998 26.7726 17.3993 26.772L17.0085 27.0839M17.4007 26.7737C17.4423 26.8256 17.4794 26.8587 17.5123 26.8798M17.4007 26.7737C17.4011 26.7743 17.4015 26.7748 17.4019 26.7753L17.0085 27.0839M17.0085 27.0839L17.5123 26.8798M17.5123 26.8798C17.5113 26.8792 17.5104 26.8786 17.5094 26.878L17.2502 27.3056L17.5152 26.8816C17.5142 26.881 17.5133 26.8804 17.5123 26.8798ZM17.5123 26.8798C17.5311 26.8909 17.5508 26.9001 17.5714 26.9074L17.5808 26.9107L17.5807 26.9108C17.7053 26.9575 17.8238 26.9404 17.9082 26.9125M17.5123 26.8798L17.4052 27.3789C17.6718 27.4789 17.9152 27.4373 18.0677 27.3864M17.9082 26.9125C17.9077 26.9127 17.9073 26.9129 17.9068 26.913L18.0677 27.3864M17.9082 26.9125C17.9559 26.8962 18.0013 26.8737 18.0432 26.8457L18.0867 26.8166L18.0983 26.812M17.9082 26.9125C17.9087 26.9124 17.9091 26.9122 17.9095 26.9121L18.0677 27.3864M18.0677 27.3864L18.0983 26.812M18.0983 26.812L18.0606 26.8355L18.3117 27.2381L18.3252 27.2598M18.0983 26.812L18.3252 27.2598M18.0983 26.812L20.4156 25.3671L20.7095 25.1839L20.9843 25.3945L23.7045 27.4791L23.401 27.8764L18.0983 26.812ZM18.0983 26.812L18.1353 26.7972L18.1394 26.7955L18.3252 27.2598M18.0983 26.812L18.3252 27.2598M25.4752 16.8381C25.5046 16.722 25.5037 16.6004 25.4727 16.4848L21.7652 20.6056C23.3643 19.0623 24.986 17.4989 25.111 17.3823C25.2568 17.2456 25.4168 17.0673 25.4752 16.8381ZM12.3732 19.7276L11.75 20.0422C11.791 19.8467 11.9462 19.7028 12.0798 19.6114C12.1558 19.5599 12.2361 19.5152 12.3198 19.4776L12.3199 19.4777L12.3268 19.4744C12.3586 19.4596 12.3911 19.4461 12.4242 19.4342L12.4518 19.4242L12.4595 19.4203L26.3669 13.9652L26.3792 13.9604L26.3897 13.9556C26.4467 13.933 26.5045 13.9122 26.5629 13.8934C26.6739 13.858 26.828 13.8183 26.9849 13.8057C27.1375 13.7941 27.3142 13.8081 27.4567 13.9006C27.4653 13.9062 27.4737 13.912 27.4819 13.9181L26.7765 14.0918C26.7104 14.108 26.6452 14.1274 26.581 14.1498H26.5687L26.4753 14.1893L26.4598 14.1959L12.524 19.6631L12.5224 19.6637L12.52 19.6646L12.5113 19.6672L12.4932 19.6742C12.4523 19.69 12.4123 19.7078 12.3732 19.7276ZM19.8854 25.4025L20.4985 25.0205L19.9251 24.5812L18.9484 23.8329L18.2811 23.3215L18.1504 24.152L17.9137 25.6562L17.7438 26.7366L18.672 26.1583L19.8854 25.4025ZM18.0886 23.1113L18.0887 23.1113L18.0958 23.1044L19.0666 22.167L19.0667 22.1669L21.2439 20.0656L21.2441 20.0654L22.0547 19.2839L21.4551 18.4924L16.0217 21.6733L15.6415 21.8958L15.8145 22.301L15.8431 22.368C15.8431 22.3682 15.8432 22.3685 15.8433 22.3687C16.1853 23.1765 16.5235 23.986 16.8579 24.797L17.5373 26.4446L17.8141 24.6841L18.0499 23.1841L18.0501 23.1829C18.0543 23.1561 18.0673 23.1311 18.0886 23.1113Z" fill="#D5D5D5" stroke="#D5D5D5"/>
</svg>
