<svg width="41" height="41" viewBox="0 0 41 41" fill="none" xmlns="http://www.w3.org/2000/svg">
<circle cx="20.0005" cy="20.5933" r="19.5" stroke="#D5D5D5"/>
<path d="M21.3042 18.9285L21.0559 19.2192L21.2714 19.535L27.6217 28.8433H23.7698L19.2824 22.2665L18.9138 21.7263L18.4892 22.2236L12.8364 28.8433H12.6516L18.5846 21.898L18.8329 21.6073L18.6174 21.2915L12.5132 12.3433H16.3653L20.6064 18.5588L20.975 19.099L21.3996 18.6017L26.7437 12.3433H26.9286L21.3042 18.9285ZM18.5474 20.9746L18.9581 20.6895L18.5474 20.9746L19.2199 21.9433L19.2199 21.9434L23.7999 28.5433L23.949 28.7583H24.2106H26.5144H27.4701L26.9251 27.9732L21.3114 19.8857L21.3114 19.8856L20.6389 18.9169L20.6389 18.9169L16.3214 12.6957L16.1723 12.4808H15.9106H13.6069H12.6511L13.1962 13.2659L18.5474 20.9746Z" fill="#D5D5D5" stroke="#D5D5D5"/>
</svg>
