<svg width="41" height="41" viewBox="0 0 41 41" fill="none" xmlns="http://www.w3.org/2000/svg">
<circle cx="20.0005" cy="20.5933" r="19.5" stroke="#D5D5D5"/>
<mask id="path-2-inside-1_968_208" fill="white">
<path d="M22.3936 19.5726L19.337 17.8126C19.1575 17.7093 18.954 17.655 18.7469 17.6551C18.5399 17.6553 18.3365 17.7099 18.1571 17.8135C17.9778 17.917 17.8289 18.066 17.7253 18.2453C17.6217 18.4246 17.5671 18.628 17.567 18.8351V22.3534C17.5645 22.7751 17.7895 23.1651 18.1553 23.3734C18.3347 23.4782 18.5386 23.5336 18.7463 23.5339C18.9541 23.5341 19.1582 23.4794 19.3378 23.3751L22.3936 21.6151C22.5732 21.5119 22.7223 21.3632 22.826 21.184C22.9297 21.0047 22.9843 20.8013 22.9843 20.5943C22.9843 20.3872 22.9297 20.1838 22.826 20.0046C22.7223 19.8253 22.5732 19.6766 22.3936 19.5734M21.977 20.8918L18.922 22.6526C18.8692 22.684 18.8088 22.7006 18.7474 22.7006C18.6859 22.7006 18.6256 22.684 18.5728 22.6526C18.5198 22.6224 18.4759 22.5786 18.4456 22.5257C18.4152 22.4728 18.3996 22.4127 18.4003 22.3518V18.8351C18.3999 18.7744 18.4157 18.7147 18.446 18.6621C18.4763 18.6095 18.5201 18.566 18.5728 18.5359C18.6252 18.5038 18.6855 18.4868 18.747 18.4868C18.8085 18.4868 18.8687 18.5038 18.9211 18.5359L21.977 20.2968C22.0297 20.3265 22.0735 20.3698 22.104 20.422C22.1345 20.4743 22.1506 20.5337 22.1506 20.5943C22.1506 20.6548 22.1345 20.7142 22.104 20.7665C22.0735 20.8188 22.0297 20.862 21.977 20.8918ZM25.9003 13.9268H14.2336C13.5708 13.9274 12.9353 14.191 12.4666 14.6597C11.9979 15.1284 11.7343 15.7639 11.7336 16.4268V24.7601C11.7343 25.4229 11.9979 26.0584 12.4666 26.5271C12.9353 26.9958 13.5708 27.2594 14.2336 27.2601H25.9003C26.5631 27.2594 27.1986 26.9958 27.6673 26.5271C28.136 26.0584 28.3996 25.4229 28.4003 24.7601V16.4268C28.3996 15.7639 28.136 15.1284 27.6673 14.6597C27.1986 14.191 26.5631 13.9274 25.9003 13.9268ZM27.567 24.7601C27.5663 25.2019 27.3905 25.6255 27.0781 25.9379C26.7657 26.2503 26.3421 26.4261 25.9003 26.4268H14.2336C13.7918 26.4261 13.3683 26.2503 13.0559 25.9379C12.7434 25.6255 12.5676 25.2019 12.567 24.7601V16.4268C12.5676 15.9849 12.7434 15.5614 13.0559 15.249C13.3683 14.9366 13.7918 14.7608 14.2336 14.7601H25.9003C26.3421 14.7608 26.7657 14.9366 27.0781 15.249C27.3905 15.5614 27.5663 15.9849 27.567 16.4268V24.7601Z"/>
</mask>
<path d="M22.3936 19.5726L19.337 17.8126C19.1575 17.7093 18.954 17.655 18.7469 17.6551C18.5399 17.6553 18.3365 17.7099 18.1571 17.8135C17.9778 17.917 17.8289 18.066 17.7253 18.2453C17.6217 18.4246 17.5671 18.628 17.567 18.8351V22.3534C17.5645 22.7751 17.7895 23.1651 18.1553 23.3734C18.3347 23.4782 18.5386 23.5336 18.7463 23.5339C18.9541 23.5341 19.1582 23.4794 19.3378 23.3751L22.3936 21.6151C22.5732 21.5119 22.7223 21.3632 22.826 21.184C22.9297 21.0047 22.9843 20.8013 22.9843 20.5943C22.9843 20.3872 22.9297 20.1838 22.826 20.0046C22.7223 19.8253 22.5732 19.6766 22.3936 19.5734M21.977 20.8918L18.922 22.6526C18.8692 22.684 18.8088 22.7006 18.7474 22.7006C18.6859 22.7006 18.6256 22.684 18.5728 22.6526C18.5198 22.6224 18.4759 22.5786 18.4456 22.5257C18.4152 22.4728 18.3996 22.4127 18.4003 22.3518V18.8351C18.3999 18.7744 18.4157 18.7147 18.446 18.6621C18.4763 18.6095 18.5201 18.566 18.5728 18.5359C18.6252 18.5038 18.6855 18.4868 18.747 18.4868C18.8085 18.4868 18.8687 18.5038 18.9211 18.5359L21.977 20.2968C22.0297 20.3265 22.0735 20.3698 22.104 20.422C22.1345 20.4743 22.1506 20.5337 22.1506 20.5943C22.1506 20.6548 22.1345 20.7142 22.104 20.7665C22.0735 20.8188 22.0297 20.862 21.977 20.8918ZM25.9003 13.9268H14.2336C13.5708 13.9274 12.9353 14.191 12.4666 14.6597C11.9979 15.1284 11.7343 15.7639 11.7336 16.4268V24.7601C11.7343 25.4229 11.9979 26.0584 12.4666 26.5271C12.9353 26.9958 13.5708 27.2594 14.2336 27.2601H25.9003C26.5631 27.2594 27.1986 26.9958 27.6673 26.5271C28.136 26.0584 28.3996 25.4229 28.4003 24.7601V16.4268C28.3996 15.7639 28.136 15.1284 27.6673 14.6597C27.1986 14.191 26.5631 13.9274 25.9003 13.9268ZM27.567 24.7601C27.5663 25.2019 27.3905 25.6255 27.0781 25.9379C26.7657 26.2503 26.3421 26.4261 25.9003 26.4268H14.2336C13.7918 26.4261 13.3683 26.2503 13.0559 25.9379C12.7434 25.6255 12.5676 25.2019 12.567 24.7601V16.4268C12.5676 15.9849 12.7434 15.5614 13.0559 15.249C13.3683 14.9366 13.7918 14.7608 14.2336 14.7601H25.9003C26.3421 14.7608 26.7657 14.9366 27.0781 15.249C27.3905 15.5614 27.5663 15.9849 27.567 16.4268V24.7601Z" fill="#D5D5D5"/>
<path d="M19.337 17.8126L19.836 16.946L19.8359 16.946L19.337 17.8126ZM17.567 18.8351L16.567 18.8344V18.8351H17.567ZM17.567 22.3534L18.567 22.3594V22.3534H17.567ZM18.1553 23.3734L18.6597 22.5099L18.6502 22.5045L18.1553 23.3734ZM19.3378 23.3751L18.8387 22.5085L18.8358 22.5102L19.3378 23.3751ZM22.3936 21.6151L21.8952 20.7481L21.8946 20.7485L22.3936 21.6151ZM21.977 20.8918L21.4852 20.021L21.4776 20.0254L21.977 20.8918ZM18.922 22.6526L18.4226 21.7861L18.411 21.793L18.922 22.6526ZM18.5728 22.6526L19.0838 21.793L19.0759 21.7883L19.0679 21.7837L18.5728 22.6526ZM18.4003 22.3518L19.4003 22.3634V22.3518H18.4003ZM18.4003 18.8351H19.4003L19.4003 18.8283L18.4003 18.8351ZM18.5728 18.5359L19.0679 19.4048L19.0817 19.3969L19.0953 19.3886L18.5728 18.5359ZM18.747 18.4868V17.4868V18.4868ZM18.9211 18.5359L18.3986 19.3886L18.4102 19.3956L18.4219 19.4024L18.9211 18.5359ZM21.977 20.2968L21.4777 21.1632L21.4852 21.1675L21.977 20.2968ZM25.9003 13.9268L25.9013 12.9268H25.9003V13.9268ZM14.2336 13.9268V12.9268L14.2326 12.9268L14.2336 13.9268ZM11.7336 16.4268L10.7336 16.4258V16.4268H11.7336ZM11.7336 24.7601H10.7336L10.7336 24.7611L11.7336 24.7601ZM14.2336 27.2601L14.2326 28.2601H14.2336V27.2601ZM25.9003 27.2601V28.2601L25.9013 28.2601L25.9003 27.2601ZM28.4003 24.7601L29.4003 24.7611V24.7601H28.4003ZM28.4003 16.4268H29.4003L29.4003 16.4258L28.4003 16.4268ZM27.567 24.7601L28.567 24.7616V24.7601H27.567ZM25.9003 26.4268V27.4268L25.9018 27.4268L25.9003 26.4268ZM14.2336 26.4268L14.2321 27.4268H14.2336V26.4268ZM12.567 24.7601H11.567L11.567 24.7616L12.567 24.7601ZM12.567 16.4268L11.567 16.4253V16.4268H12.567ZM14.2336 14.7601V13.7601L14.2321 13.7601L14.2336 14.7601ZM25.9003 14.7601L25.9018 13.7601H25.9003V14.7601ZM27.567 16.4268H28.567L28.567 16.4253L27.567 16.4268ZM22.8926 18.706L19.836 16.946L18.838 18.6792L21.8947 20.4392L22.8926 18.706ZM19.8359 16.946C19.5045 16.7551 19.1287 16.6548 18.7462 16.6551L18.7477 18.6551C18.7794 18.6551 18.8105 18.6634 18.838 18.6792L19.8359 16.946ZM18.7462 16.6551C18.3637 16.6554 17.9881 16.7562 17.6569 16.9476L18.6574 18.6794C18.6848 18.6635 18.716 18.6551 18.7477 18.6551L18.7462 16.6551ZM17.6569 16.9476C17.3258 17.1389 17.0507 17.4139 16.8594 17.7451L18.5912 18.7455C18.6071 18.718 18.6299 18.6952 18.6574 18.6794L17.6569 16.9476ZM16.8594 17.7451C16.6681 18.0763 16.5673 18.4519 16.567 18.8344L18.567 18.8358C18.567 18.8041 18.5754 18.773 18.5912 18.7455L16.8594 17.7451ZM16.567 18.8351V22.3534H18.567V18.8351H16.567ZM16.567 22.3475C16.5624 23.1301 16.98 23.8549 17.6605 24.2424L18.6502 22.5045C18.599 22.4753 18.5666 22.4201 18.567 22.3594L16.567 22.3475ZM17.6509 24.2369C17.9829 24.4308 18.3604 24.5333 18.7449 24.5339L18.7477 22.5339C18.7168 22.5338 18.6864 22.5256 18.6597 22.51L17.6509 24.2369ZM18.7449 24.5339C19.1294 24.5344 19.5072 24.433 19.8398 24.24L18.8358 22.5102C18.8091 22.5257 18.7787 22.5339 18.7477 22.5339L18.7449 24.5339ZM19.8369 24.2416L22.8927 22.4816L21.8946 20.7485L18.8387 22.5085L19.8369 24.2416ZM22.892 22.482C23.224 22.2912 23.4998 22.0162 23.6915 21.6848L21.9604 20.6831C21.9448 20.7102 21.9223 20.7326 21.8952 20.7481L22.892 22.482ZM23.6915 21.6848C23.8833 21.3533 23.9843 20.9772 23.9843 20.5943H21.9843C21.9843 20.6255 21.9761 20.6561 21.9604 20.6831L23.6915 21.6848ZM23.9843 20.5943C23.9843 20.2113 23.8833 19.8352 23.6915 19.5038L21.9604 20.5054C21.9761 20.5324 21.9843 20.563 21.9843 20.5943H23.9843ZM23.6915 19.5038C23.4998 19.1723 23.224 18.8973 22.892 18.7065L21.8952 20.4404C21.9223 20.4559 21.9448 20.4783 21.9604 20.5054L23.6915 19.5038ZM21.4776 20.0254L18.4226 21.7862L19.4213 23.519L22.4763 21.7581L21.4776 20.0254ZM18.411 21.793C18.5128 21.7325 18.629 21.7006 18.7474 21.7006V23.7006C18.9887 23.7006 19.2255 23.6355 19.433 23.5122L18.411 21.793ZM18.7474 21.7006C18.8658 21.7006 18.982 21.7325 19.0838 21.793L18.0618 23.5122C18.2693 23.6355 18.5061 23.7006 18.7474 23.7006V21.7006ZM19.0679 21.7837C19.17 21.8419 19.2546 21.9263 19.3131 22.0283L17.5781 23.0231C17.6972 23.2308 17.8697 23.4029 18.0778 23.5215L19.0679 21.7837ZM19.3131 22.0283C19.3715 22.1302 19.4016 22.2459 19.4002 22.3634L17.4004 22.3401C17.3976 22.5796 17.4589 22.8154 17.5781 23.0231L19.3131 22.0283ZM19.4003 22.3518V18.8351H17.4003V22.3518H19.4003ZM19.4003 18.8283C19.4011 18.9453 19.3707 19.0603 19.3123 19.1616L17.5797 18.1626C17.4606 18.3691 17.3987 18.6035 17.4003 18.8419L19.4003 18.8283ZM19.3123 19.1616C19.2539 19.2629 19.1695 19.3469 19.0679 19.4048L18.0777 17.6671C17.8706 17.7851 17.6987 17.9561 17.5797 18.1626L19.3123 19.1616ZM19.0953 19.3886C18.9905 19.4528 18.8699 19.4868 18.747 19.4868V17.4868C18.5011 17.4868 18.26 17.5548 18.0503 17.6833L19.0953 19.3886ZM18.747 19.4868C18.624 19.4868 18.5035 19.4528 18.3986 19.3886L19.4436 17.6833C19.234 17.5548 18.9929 17.4868 18.747 17.4868V19.4868ZM18.4219 19.4024L21.4777 21.1632L22.4762 19.4303L19.4204 17.6695L18.4219 19.4024ZM21.4852 21.1675C21.3837 21.1101 21.2992 21.0268 21.2404 20.9261L22.9677 19.9179C22.8479 19.7127 22.6757 19.5429 22.4687 19.426L21.4852 21.1675ZM21.2404 20.9261C21.1816 20.8254 21.1506 20.7109 21.1506 20.5943H23.1506C23.1506 20.3566 23.0875 20.1232 22.9677 19.9179L21.2404 20.9261ZM21.1506 20.5943C21.1506 20.4776 21.1816 20.3631 21.2404 20.2624L22.9677 21.2706C23.0875 21.0653 23.1506 20.8319 23.1506 20.5943H21.1506ZM21.2404 20.2624C21.2992 20.1617 21.3837 20.0784 21.4852 20.021L22.4687 21.7625C22.6757 21.6456 22.8479 21.4759 22.9677 21.2706L21.2404 20.2624ZM25.9003 12.9268H14.2336V14.9268H25.9003V12.9268ZM14.2326 12.9268C13.3049 12.9277 12.4155 13.2966 11.7595 13.9526L13.1737 15.3668C13.4551 15.0854 13.8367 14.9272 14.2346 14.9268L14.2326 12.9268ZM11.7595 13.9526C11.1035 14.6086 10.7346 15.4981 10.7336 16.4258L12.7336 16.4278C12.734 16.0298 12.8923 15.6482 13.1737 15.3668L11.7595 13.9526ZM10.7336 16.4268V24.7601H12.7336V16.4268H10.7336ZM10.7336 24.7611C10.7346 25.6888 11.1035 26.5782 11.7595 27.2342L13.1737 25.82C12.8923 25.5386 12.734 25.1571 12.7336 24.7591L10.7336 24.7611ZM11.7595 27.2342C12.4155 27.8902 13.3049 28.2592 14.2326 28.2601L14.2346 26.2601C13.8367 26.2597 13.4551 26.1014 13.1737 25.82L11.7595 27.2342ZM14.2336 28.2601H25.9003V26.2601H14.2336V28.2601ZM25.9013 28.2601C26.829 28.2592 27.7185 27.8902 28.3745 27.2342L26.9602 25.82C26.6788 26.1014 26.2973 26.2597 25.8993 26.2601L25.9013 28.2601ZM28.3745 27.2342C29.0304 26.5782 29.3994 25.6888 29.4003 24.7611L27.4003 24.7591C27.3999 25.1571 27.2416 25.5386 26.9602 25.82L28.3745 27.2342ZM29.4003 24.7601V16.4268H27.4003V24.7601H29.4003ZM29.4003 16.4258C29.3994 15.4981 29.0304 14.6086 28.3745 13.9526L26.9602 15.3668C27.2416 15.6482 27.3999 16.0298 27.4003 16.4278L29.4003 16.4258ZM28.3745 13.9526C27.7185 13.2966 26.829 12.9277 25.9013 12.9268L25.8993 14.9268C26.2973 14.9272 26.6788 15.0854 26.9602 15.3668L28.3745 13.9526ZM26.567 24.7586C26.5667 24.9357 26.4962 25.1055 26.371 25.2308L27.7852 26.645C28.2848 26.1454 28.5659 25.4681 28.567 24.7616L26.567 24.7586ZM26.371 25.2308C26.2457 25.356 26.0759 25.4265 25.8988 25.4268L25.9018 27.4268C26.6083 27.4257 27.2856 27.1446 27.7852 26.645L26.371 25.2308ZM25.9003 25.4268H14.2336V27.4268H25.9003V25.4268ZM14.2351 25.4268C14.058 25.4265 13.8882 25.356 13.763 25.2308L12.3488 26.645C12.8483 27.1446 13.5256 27.4257 14.2321 27.4268L14.2351 25.4268ZM13.763 25.2308C13.6377 25.1055 13.5672 24.9357 13.567 24.7586L11.567 24.7616C11.568 25.4681 11.8492 26.1454 12.3488 26.645L13.763 25.2308ZM13.567 24.7601V16.4268H11.567V24.7601H13.567ZM13.567 16.4283C13.5672 16.2511 13.6377 16.0813 13.763 15.9561L12.3488 14.5419C11.8492 15.0415 11.568 15.7187 11.567 16.4253L13.567 16.4283ZM13.763 15.9561C13.8882 15.8308 14.058 15.7604 14.2351 15.7601L14.2321 13.7601C13.5256 13.7611 12.8483 14.0423 12.3488 14.5419L13.763 15.9561ZM14.2336 15.7601H25.9003V13.7601H14.2336V15.7601ZM25.8988 15.7601C26.0759 15.7604 26.2457 15.8308 26.371 15.9561L27.7852 14.5419C27.2856 14.0423 26.6083 13.7611 25.9018 13.7601L25.8988 15.7601ZM26.371 15.9561C26.4962 16.0813 26.5667 16.2511 26.567 16.4283L28.567 16.4253C28.5659 15.7187 28.2848 15.0415 27.7852 14.5419L26.371 15.9561ZM26.567 16.4268V24.7601H28.567V16.4268H26.567Z" fill="#D5D5D5" mask="url(#path-2-inside-1_968_208)"/>
</svg>
